<?xml version="1.0" standalone="no"?>
<!DOCTYPE svg PUBLIC "-//W3C//DTD SVG 20010904//EN"
 "http://www.w3.org/TR/2001/REC-SVG-20010904/DTD/svg10.dtd">
<svg version="1.0" xmlns="http://www.w3.org/2000/svg"
 width="300.000000pt" height="189.000000pt" viewBox="0 0 300.000000 189.000000"
 preserveAspectRatio="xMidYMid meet">
<metadata>
Created by potrace 1.10, written by Peter Selinger 2001-2011
</metadata>
<g transform="translate(0.000000,189.000000) scale(0.100000,-0.100000)">
<path d="M1519 1873 c0 -5 0 -38 1 -75 1 -38 -1 -68 -3 -68 -2 0 -42 18 -88
39 -269 126 -592 134 -864 20 -206 -85 -401 -267 -484 -451 -45 -100 -61 -174
-61 -292 0 -188 63 -332 209 -476 165 -162 377 -253 621 -266 185 -10 467 38
617 106 36 16 67 30 69 30 2 0 1 -14 -3 -30 l-6 -30 167 2 167 3 -1 278 -1
278 41 -3 41 -3 2 -308 2 -307 -80 0 -80 0 0 -155 0 -155 368 0 367 0 0 155 0
155 -80 0 -80 0 0 310 0 310 169 0 169 0 7 -57 c11 -88 1 -83 151 -83 l134 0
0 240 0 240 -900 0 -900 0 0 -240 0 -240 134 0 134 0 11 50 c6 28 11 60 11 70
0 17 7 20 45 20 25 0 45 -5 45 -10 0 -6 -14 -38 -31 -72 -58 -114 -170 -196
-319 -234 -86 -22 -277 -14 -366 14 -155 49 -276 138 -326 238 -33 65 -40 95
-39 180 1 279 260 488 581 471 146 -8 266 -51 398 -143 l63 -44 149 0 150 0 0
270 0 270 -155 0 c-85 0 -155 -3 -156 -7z m254 -267 l2 -216 -112 0 -112 0
-81 55 c-291 194 -668 177 -886 -41 -116 -115 -172 -284 -145 -431 45 -243
308 -417 631 -416 124 0 205 19 305 71 128 66 232 199 250 320 l7 42 -95 0
c-107 0 -98 7 -112 -92 l-7 -48 -89 0 -89 0 0 190 0 190 850 0 850 0 0 -190 0
-190 -89 0 -89 0 -12 70 -12 70 -216 0 -217 0 0 -360 0 -360 83 0 82 0 0 -105
0 -105 -314 0 -315 0 -3 105 -3 105 83 0 82 0 0 360 0 360 -95 0 -95 0 0 -275
0 -275 -113 0 -112 0 3 45 4 46 -63 -35 c-122 -67 -307 -116 -516 -136 -294
-29 -572 66 -763 261 -117 120 -180 271 -180 434 0 263 180 520 465 660 157
78 252 99 435 99 114 0 163 -5 231 -21 117 -30 212 -67 290 -113 36 -22 68
-40 72 -40 4 0 7 42 7 93 l0 92 100 -1 101 -2 2 -216z"/>
</g>
</svg>
